<?xml version="1.0" standalone="no"?>
<!DOCTYPE svg PUBLIC "-//W3C//DTD SVG 20010904//EN"
 "http://www.w3.org/TR/2001/REC-SVG-20010904/DTD/svg10.dtd">
<svg version="1.0" xmlns="http://www.w3.org/2000/svg"
 width="" height="" viewBox="0 0 1804.000000 580.000000"
 preserveAspectRatio="xMidYMid meet">
<metadata>
Created by potrace 1.16, written by Peter Selinger 2001-2019
</metadata>
<g transform="translate(0.000000,580.000000) scale(0.100000,-0.100000)"
fill="#000000" stroke="none">
<path d="M14149 5691 c-65 -65 -25 -118 165 -219 332 -176 725 -436 1074 -710
73 -57 131 -106 129 -108 -2 -2 -64 5 -138 15 -596 87 -1276 93 -1874 15 -319
-41 -762 -130 -805 -162 -31 -23 -39 -82 -16 -117 27 -41 69 -41 264 -1 474
95 953 140 1517 140 434 0 722 -20 1134 -76 199 -27 168 -7 478 -312 238 -233
442 -453 459 -494 25 -58 68 -492 85 -843 l12 -245 -93 -145 c-115 -181 -274
-407 -400 -570 l-98 -125 -118 -37 c-604 -186 -1212 -298 -1833 -338 -333 -21
-1074 1 -1244 37 -24 5 -28 3 -25 -13 3 -15 28 -22 163 -45 372 -62 633 -82
1085 -82 277 0 426 5 570 18 372 33 727 89 1029 162 79 19 145 33 147 31 2 -1
-68 -79 -155 -172 -357 -385 -773 -742 -1204 -1034 l-49 -33 -21 21 c-27 25
-88 51 -120 51 -40 0 -108 -43 -128 -80 -37 -68 -15 -164 45 -201 21 -13 50
-19 89 -19 96 0 147 51 147 148 l0 50 106 62 c316 184 672 444 997 727 67 59
224 209 348 334 l227 227 178 60 c99 33 209 71 247 85 l67 26 -5 -37 c-3 -20
-14 -106 -25 -191 -43 -317 -107 -625 -201 -961 l-40 -145 -69 0 c-65 0 -71
-2 -105 -35 -117 -113 -19 -296 142 -265 108 20 155 175 77 256 l-27 28 56
153 c73 201 125 373 180 593 47 186 111 498 123 595 l7 55 116 49 c143 60 481
225 616 300 54 31 102 56 105 56 9 0 124 -241 186 -390 27 -63 50 -107 52 -99
3 18 -92 298 -146 429 l-40 95 42 24 c277 163 314 198 279 270 -17 35 -20 36
-73 36 -51 0 -65 -6 -184 -78 -71 -42 -132 -77 -135 -77 -3 0 -44 77 -90 170
-46 94 -130 252 -186 351 l-103 180 68 142 c82 170 183 411 246 586 25 69 47
127 49 129 4 5 278 -123 404 -189 63 -32 117 -57 120 -54 2 3 -4 12 -15 19
-42 32 -278 170 -378 222 -58 30 -106 60 -106 66 0 6 20 78 45 161 49 161 51
197 12 221 -49 30 -76 29 -112 -7 -26 -26 -41 -59 -75 -166 -27 -87 -45 -131
-53 -127 -201 88 -437 186 -562 231 -88 31 -165 62 -171 69 -6 6 -30 88 -54
181 -94 375 -336 1041 -402 1112 -31 34 -105 27 -130 -11 -20 -30 -6 -101 48
-233 77 -189 203 -570 262 -793 28 -102 49 -186 47 -188 -1 -1 -59 13 -128 33
-70 19 -174 47 -233 61 l-108 26 -85 78 c-291 266 -729 585 -1106 805 -217
127 -487 265 -519 265 -17 0 -39 -11 -57 -29z m2139 -1350 c68 -16 126 -32
130 -35 6 -6 73 -319 69 -323 -1 -1 -31 33 -67 74 -36 42 -119 132 -184 200
-85 88 -112 122 -95 118 13 -3 79 -19 147 -34z m517 -141 c164 -52 510 -174
524 -186 12 -10 -296 -734 -313 -734 -2 0 -25 33 -51 73 -27 39 -90 129 -140
198 l-93 127 -12 88 c-7 49 -27 176 -46 282 -19 106 -34 196 -34 198 0 3 10 2
23 -2 12 -4 76 -24 142 -44z m73 -951 c40 -53 72 -99 72 -103 0 -4 -37 -76
-82 -159 l-83 -152 -6 213 c-4 118 -10 245 -14 284 l-7 71 25 -29 c13 -16 56
-72 95 -125z m335 -488 c34 -53 102 -168 153 -256 88 -152 91 -160 73 -173
-76 -53 -684 -340 -696 -328 -3 3 -1 54 5 113 6 59 14 155 18 213 l7 105 62
100 c80 129 119 197 190 323 l57 104 35 -53 c20 -28 63 -95 96 -148z m-600
-750 l-8 -73 -110 -43 c-171 -66 -165 -68 -83 37 40 51 102 133 138 181 l65
88 3 -58 c1 -32 -1 -91 -5 -132z"/>
<path d="M16993 2539 c-81 -23 -112 -136 -55 -200 21 -23 39 -32 73 -36 83 -9
139 41 139 126 0 60 -39 101 -110 116 -8 2 -29 -1 -47 -6z"/>
<path d="M16983 5225 c-68 -29 -96 -141 -54 -211 56 -91 204 -82 253 16 34 67
13 145 -51 187 -39 27 -99 30 -148 8z"/>
<path d="M6914 4770 c-99 -20 -186 -85 -232 -175 -34 -67 -42 -189 -17 -264
23 -72 89 -141 167 -176 53 -25 76 -29 148 -29 72 0 95 4 147 28 72 33 134 94
166 164 16 35 21 68 22 127 0 71 -4 88 -33 147 -49 100 -125 156 -237 177 -65
12 -73 12 -131 1z"/>
<path d="M11295 4766 c-102 -25 -179 -89 -223 -184 -34 -76 -35 -193 -2 -270
29 -68 111 -144 182 -169 81 -27 198 -24 269 9 107 49 171 130 188 240 30 182
-85 343 -268 378 -65 12 -82 12 -146 -4z"/>
<path d="M5260 4185 l0 -265 -160 0 -160 0 0 -230 0 -230 159 0 159 0 5 -422
c4 -468 6 -482 73 -624 82 -174 231 -286 436 -328 98 -20 303 -21 395 -1 134
28 303 98 303 124 0 31 -128 446 -136 444 -5 -1 -43 -14 -84 -29 -144 -52
-279 -43 -343 24 -60 63 -62 74 -65 460 l-3 352 265 0 266 0 0 230 0 230 -265
0 -265 0 0 265 0 265 -290 0 -290 0 0 -265z"/>
<path d="M2340 3320 l1 -705 25 40 c173 275 231 620 158 946 -22 102 -85 259
-139 349 l-45 75 0 -705z"/>
<path d="M3875 3970 c-146 -17 -294 -71 -387 -143 l-48 -37 0 65 0 65 -290 0
-290 0 0 -1205 0 -1205 290 0 290 0 0 370 0 371 48 -36 c58 -45 167 -98 247
-120 39 -11 115 -19 215 -22 135 -4 167 -2 245 16 322 77 558 323 647 678 19
75 23 113 22 258 -1 151 -4 181 -27 270 -87 327 -328 578 -627 654 -90 23
-239 32 -335 21z m101 -504 c275 -73 406 -405 268 -678 -102 -201 -355 -284
-557 -181 -110 55 -208 181 -236 303 -76 329 217 638 525 556z"/>
<path d="M8678 3970 c-141 -17 -270 -72 -366 -156 l-52 -46 0 76 0 76 -290 0
-290 0 0 -900 0 -900 289 0 290 0 3 498 c4 427 7 505 21 555 37 126 99 211
186 251 67 30 199 30 258 -2 60 -32 111 -86 142 -151 l26 -56 3 -547 3 -548
289 0 289 0 3 503 c4 451 6 508 22 557 62 188 180 280 342 267 117 -9 208 -82
253 -202 20 -54 21 -73 21 -590 l0 -535 290 0 291 0 -4 643 c-4 718 0 683 -78
845 -72 151 -225 285 -377 332 -280 87 -597 12 -801 -189 l-70 -69 -28 41
c-65 93 -219 191 -357 227 -88 22 -220 31 -308 20z"/>
<path d="M14684 3966 c-389 -74 -683 -332 -784 -688 -32 -112 -38 -296 -12
-418 72 -344 288 -620 572 -729 136 -53 201 -64 355 -64 162 1 273 24 423 91
331 146 521 400 557 745 7 67 7 68 -17 63 -12 -3 -129 -21 -257 -41 -140 -21
-238 -40 -243 -48 -4 -6 -8 -19 -8 -28 0 -35 -63 -139 -110 -183 -28 -26 -84
-63 -125 -83 -135 -64 -250 -55 -374 28 -58 39 -140 124 -129 135 3 2 277 105
609 227 569 210 604 224 601 246 -5 47 -83 229 -133 310 -92 148 -239 286
-386 360 -153 77 -375 108 -539 77z m260 -510 c47 -23 136 -98 136 -114 0 -4
-116 -49 -258 -101 -141 -52 -293 -107 -336 -123 l-79 -29 6 58 c8 80 65 190
125 244 118 105 273 130 406 65z"/>
<path d="M6690 3020 l0 -900 290 0 290 0 0 900 0 900 -290 0 -290 0 0 -900z"/>
<path d="M11090 3020 l0 -900 290 0 290 0 0 900 0 900 -290 0 -290 0 0 -900z"/>
<path d="M12030 3690 l0 -230 431 -2 432 -3 -441 -475 -441 -475 -1 -192 0
-193 830 0 830 0 0 230 0 230 -459 2 -459 3 444 475 443 475 1 193 0 192 -805
0 -805 0 0 -230z"/>
<path d="M17219 1521 c-66 -66 -18 -181 76 -181 92 0 141 116 76 181 -24 24
-38 29 -76 29 -38 0 -52 -5 -76 -29z"/>
</g>
</svg>
